<?xml version="1.0" encoding="iso-8859-1"?>
<!-- Uploaded to: SVG Repo, www.svgrepo.com, Generator: SVG Repo Mixer Tools -->
<svg version="1.1" id="Layer_1" xmlns="http://www.w3.org/2000/svg" xmlns:xlink="http://www.w3.org/1999/xlink" 
	 viewBox="0 0 512 512" xml:space="preserve">
<path style="fill:#B3B3B3;" d="M191.841,38.939c-8.859,0-16.04-7.453-16.04-16.312s7.181-16.312,16.04-16.312h136.342
	c8.859,0,16.04,7.454,16.04,16.312s-7.182,16.177-16.04,16.177"/>
<path style="fill:#00FFFF;" d="M376.303,63h-24.06v4.255c0,24.227-19.639,43.866-43.866,43.866h-96.731
	c-24.227,0-43.866-19.639-43.866-43.866V63h-16.04v-24.06h224.562V63z"/>
<path style="fill:#998675;" d="M256.001,37.887c8.859,0,16.04-6.927,16.04-15.786s-7.182-15.786-16.04-15.786h-64.16
	c-8.859,0-16.04,6.927-16.04,15.786s7.182,15.786,16.04,15.786H256.001z"/>
<g>
	<rect x="119.661" y="472.029" style="fill:#00FFFF;" width="272.681" height="32.081"/>
	<rect x="119.661" y="135.183" style="fill:#00FFFF;" width="272.681" height="96.243"/>
</g>
<rect x="119.661" y="231.426" style="fill:#B3B3B3;" width="272.681" height="240.603"/>
<circle style="fill:#FFFFFF;" cx="352.244" cy="183.299" r="16.04"/>
<rect x="143.719" y="159.241" style="fill:#998675;" width="72.185" height="48.121"/>
<path style="fill:#00FFFF;" d="M256.733,263.503c-48.724,0-88.587,39.498-88.587,88.222s40.047,88.221,88.77,88.221
	c43.245,0,79.948-31.115,87.315-72.179v-32.083C336.863,294.618,299.978,263.503,256.733,263.503z M256.417,415.885
	c-35.435,0-64.369-28.726-64.369-64.16s29.04-64.16,64.475-64.16c29.89,0,55.082,20.438,62.449,48.102v32.1
	C311.605,395.438,286.314,415.885,256.417,415.885z"/>
<g>
	<path style="fill:#FFFFFF;" d="M318.141,367.765c-7.123,27.672-32.243,48.12-62.14,48.12c-35.435,0-64.161-28.726-64.161-64.16
		s28.726-64.16,64.161-64.16c29.89,0,55.006,20.438,62.135,48.102"/>
	<rect x="159.758" y="455.99" style="fill:#FFFFFF;" width="40.097" height="24.06"/>
</g>
<rect x="159.01" y="225.217" width="192.592" height="15.786"/>
<path d="M223.793,215.256h-87.967v-63.907h87.967V215.256z M151.613,199.47h56.395v-32.334h-56.395V199.47z"/>
<rect x="237.942" y="175.753" width="17.891" height="15.786"/>
<rect x="264.252" y="175.753" style="fill:#FFFFFF;" width="31.572" height="15.786"/>
<rect x="237.942" y="199.959" width="17.891" height="15.786"/>
<rect x="264.252" y="199.959" style="fill:#FFFFFF;" width="31.572" height="15.786"/>
<rect x="237.942" y="151.548" width="17.891" height="15.786"/>
<rect x="264.252" y="151.548" style="fill:#FFFFFF;" width="31.572" height="15.786"/>
<path d="M352.242,159.368c-10.56,0-19.537,6.876-22.707,16.385h-17.93v15.786h18.165c3.365,9.151,12.168,15.696,22.472,15.696
	c13.197,0,23.933-10.737,23.933-23.934C376.175,170.105,365.44,159.368,352.242,159.368z M352.242,191.449
	c-4.493,0-8.147-3.655-8.147-8.148c0-4.493,3.655-8.147,8.147-8.147c4.493,0,8.147,3.655,8.147,8.147
	C360.389,187.794,356.735,191.449,352.242,191.449z"/>
<rect x="311.6" y="151.548" width="15.786" height="15.786"/>
<rect x="311.6" y="199.959" width="15.786" height="15.786"/>
<rect x="288.079" y="335.689" style="fill:#998675;" width="72.185" height="32.081"/>
<path d="M368.156,327.792h-19.068c-10.784-42.196-48.912-72.181-93.087-72.181c-52.998,0-96.115,43.116-96.115,96.115
	s43.116,96.115,96.115,96.115c44.174,0,82.303-29.985,93.087-72.181h19.068V327.792z M256.001,432.053
	c-44.293,0-80.329-36.035-80.329-80.329s36.035-80.329,80.329-80.329c35.539,0,66.396,23.214,76.694,56.395h-8.71
	c-10.043-28.62-37.173-48.121-67.984-48.121c-39.731,0-72.054,32.323-72.054,72.054c0,39.731,32.323,72.054,72.054,72.054
	c30.815,0,57.941-19.5,67.984-48.121h8.71C322.397,408.839,291.54,432.053,256.001,432.053z M306.941,375.658
	c-9.12,19.451-28.808,32.334-50.94,32.334c-31.026,0-56.267-25.241-56.267-56.267s25.241-56.267,56.267-56.267
	c22.13,0,41.819,12.884,50.94,32.334h-26.752v47.866H306.941z M352.37,359.871h-56.395v-16.293h56.395V359.871z"/>
<rect x="234.072" y="311.476" transform="matrix(-0.7071 -0.7071 0.7071 -0.7071 182.7888 727.0206)" width="15.786" height="28.355"/>
<rect x="236.082" y="335.392" transform="matrix(-0.7071 -0.7071 0.7071 -0.7071 159.2831 793.4719)" width="15.786" height="56.71"/>
<path d="M207.753,487.94h-55.887v-39.847h55.887V487.94z M167.653,472.153h24.315v-8.274h-24.315V472.153z"/>
<path d="M317.92,127.288v-9.164c22.835-4.275,40.439-23.585,42.089-47.229h16.293V55.108h-31.953v12.147
	c0,19.836-16.138,35.974-35.974,35.974h-96.731c-19.836,0-35.974-16.138-35.974-35.974V55.107h-23.933v15.786h8.273
	c1.574,22.562,17.674,41.179,38.985,46.551v9.843h-87.232V512h288.471V127.288H317.92z M214.783,119.013h87.35v8.274h-87.35
	L214.783,119.013L214.783,119.013z M127.552,496.214v-15.26h14.615v-15.786h-14.615V241.003h14.615v-15.786h-14.615v-82.143H384.45
	v82.143h-16.014v15.786h16.014v224.164H215.836v15.786h168.614v15.26H127.552z"/>
<rect x="191.635" y="54.726" width="135.762" height="15.786"/>
<path d="M350.734,31.572c0.973-2.544,1.512-5.292,1.512-8.156C352.247,10.285,341.602,0,328.182,0H191.841
	c-13.42,0-24.038,10.285-24.038,23.416c0,2.883,0.489,5.627,1.398,8.156h-33.347v15.786h247.318V31.572H350.734z M183.588,23.416
	c0-4.35,3.608-7.63,8.252-7.63h136.343c4.644,0,8.278,3.28,8.278,7.63c0,4.423-3.807,7.889-8.016,7.889v0.267H191.63v-0.526
	C187.42,31.046,183.588,27.766,183.588,23.416z"/>
</svg>